<svg width="138" height="72" viewBox="0 0 138 72" fill="none" xmlns="http://www.w3.org/2000/svg">
<path d="M100.536 7.93174C98.3307 12.5358 97.2278 19.4363 97.2278 28.6501C97.2278 35.4541 97.9686 41.0687 99.4503 45.4684C100.932 49.8794 103.23 52.9734 106.36 54.7276C105.63 54.0975 105.104 53.3822 104.773 52.5477C104.438 51.7273 104.277 50.8843 104.277 50.0356C104.277 48.5028 104.7 47.058 105.572 45.7182C106.438 44.3869 107.165 43.9554 107.889 43.5467C108.555 43.1663 109.329 42.962 109.889 42.8087C110.454 42.6724 111.036 42.6072 111.649 42.6072C113.209 42.6072 114.643 43.0642 115.924 43.981C118.267 45.6557 119.612 48.0373 120.787 50.6231C122.469 48.3523 123.678 45.4854 124.433 42.0111C125.185 38.5651 125.572 34.066 125.572 28.5479C125.572 19.581 124.38 12.7601 122.01 8.05664C119.62 3.38159 116.069 1.02845 111.318 1.02845C106.335 1.02845 102.742 3.32766 100.534 7.93174H100.536ZM30.6606 50.5976C30.6606 52.261 30.7693 53.3027 30.9976 53.7626C31.1035 53.9925 31.4906 54.2309 32.1674 54.4835C32.833 54.7418 34.1142 54.9661 36.0108 55.1421C44.3996 55.8631 46.6751 52.6413 46.6751 52.6413C48.2932 50.8275 49.1009 47.2453 49.1009 41.8833L49.0926 28.0342V27.0464L49.0368 19.002C49.0341 -0.609375 32.8414 1.70118 32.8414 1.70118C31.7218 1.70118 31.1035 1.75795 30.9976 1.87149C30.7693 2.05316 30.6606 2.79401 30.6606 4.09406V50.5976ZM8.15966 5.98735C5.36619 9.51564 3.27178 15.8569 1.88201 25.0225H0.709473V0.880849H54.9998L83.9455 39.3003C84.6724 40.2739 85.1125 40.7593 85.2852 40.7593C85.4467 40.7593 85.5358 40.1745 85.5358 39.0505V15.2864C85.5358 10.1061 84.6724 6.54654 82.9457 4.60783C81.2161 2.68047 78.0884 1.70118 73.5849 1.70118V0.880849H97.3364V1.70118C93.3676 1.70118 90.602 2.67763 89.0451 4.60783C87.4798 6.54654 86.7 10.0975 86.7 15.2864V22.0648C87.7946 16.558 90.3513 11.8063 94.3674 7.80117C97.9714 4.21044 101.907 1.90556 106.174 0.886526C107.859 0.489133 109.583 0.287598 111.371 0.287598C117.84 0.287598 123.5 2.64073 128.368 7.36688C133.891 12.7005 136.648 19.7343 136.648 28.4713C136.648 34.4975 135.228 39.6891 132.379 44.0576C129.869 47.8669 126.444 50.9042 122.085 53.1721C122.642 55.0938 123.246 57.0893 123.892 59.133C124.527 61.1739 125.073 62.5364 125.516 63.2177C127.301 65.7695 129.173 67.0525 131.128 67.0525C132.749 67.0525 134.128 66.0874 135.27 64.1629C136.409 62.2497 136.974 59.6468 136.974 56.3712C136.974 55.2499 136.899 54.018 136.729 52.7151H137.381C137.492 53.2828 137.576 53.9471 137.634 54.6908C137.696 55.4288 137.718 56.1015 137.718 56.7146C137.718 60.9213 136.721 64.3957 134.702 67.1519C132.688 69.9166 129.933 71.2904 126.421 71.2904C125.085 71.2904 123.597 71.0321 121.985 70.5269C119.478 69.6583 117.495 68.0006 116.044 65.5481C114.596 63.0672 113.866 60.0243 113.866 56.3967C113.532 56.4705 112.373 56.726 111.359 56.726C109.733 56.726 108.157 56.5727 106.628 56.2661C102.124 55.3635 98.041 53.1267 94.3702 49.5729C90.3541 45.6784 87.7946 40.9097 86.7028 35.2242V56.2718H84.7142L51.4348 11.2244L50.5157 10.1061C50.3514 10.1061 50.2623 10.617 50.2623 11.6445V39.8396C50.2623 46.1042 51.1006 50.2683 52.7606 52.3092C54.4372 54.3558 57.551 55.3834 62.1158 55.3834V56.2803H7.34641V55.3834C10.5159 55.3834 13.0531 55.2982 14.9526 55.1421C16.8437 54.9632 18.1332 54.739 18.7988 54.4835C19.4645 54.2309 19.8962 53.913 20.0911 53.544C20.2833 53.1807 20.3919 52.1928 20.3919 50.5976V4.18489C20.3919 2.72021 20.2192 1.8942 19.8822 1.79769C19.7151 1.74944 19.133 1.70118 18.1332 1.70118C13.7745 1.70118 10.4518 3.12612 8.15966 5.98735Z" fill="white"/>
<path d="M11.5436 62.403H9.79175V61.3584H14.4513V62.403H12.7078V67.2512H11.5436V62.403Z" fill="white"/>
<path d="M18.3086 61.3612H21.5505V62.4058H19.4728V63.7428H21.5115V64.7845H19.4728V66.2094H21.5505V67.2512H18.3086V61.3584V61.3612Z" fill="white"/>
<path d="M31.8304 65.2784C31.4794 66.4961 30.3543 67.3647 29.0035 67.3647C27.2377 67.3647 25.9733 65.9397 25.9733 64.2991C25.9733 62.6584 27.1681 61.2505 28.9979 61.2505C30.6606 61.259 31.6076 62.508 31.8332 63.368H30.6077C30.4267 62.9621 29.9114 62.3007 28.9895 62.2922C27.8644 62.2922 27.1374 63.2545 27.1374 64.2991C27.1374 65.3436 27.895 66.3201 28.9979 66.3201C30.0284 66.3201 30.4991 65.4912 30.6077 65.2784H31.8332H31.8304Z" fill="white"/>
<path d="M36.3785 67.2539V61.3611H37.5427V63.7256H39.768V61.3611H40.9322V67.2539H39.768V64.7701H37.5427V67.2539H36.3785Z" fill="white"/>
<path d="M49.4629 65.4457L49.4407 61.3611H50.5575V67.2539H49.527L46.8616 63.1777L46.8839 67.2539H45.7671V61.3611H46.8059L49.4629 65.4457Z" fill="white"/>
<path d="M55.1502 64.3558C55.1502 62.4682 56.5707 61.2505 58.1805 61.2505C59.9295 61.2505 61.219 62.6357 61.219 64.3076C61.219 65.9795 59.9379 67.3647 58.1721 67.3647C56.4063 67.3647 55.1475 65.9397 55.1475 64.3615V64.353L55.1502 64.3558ZM56.3144 64.3076C56.3144 65.3834 57.072 66.3229 58.1972 66.3229C59.3224 66.3229 60.0576 65.2869 60.0576 64.3161C60.0576 63.3453 59.3697 62.2951 58.1916 62.2951C57.0135 62.2951 56.3172 63.2658 56.3172 64.3019V64.3104L56.3144 64.3076Z" fill="white"/>
<path d="M65.8284 61.3612H66.9926V66.2094H69.2262V67.2512H65.8284V61.3584V61.3612Z" fill="white"/>
<path d="M72.624 64.3558C72.624 62.4682 74.0444 61.2505 75.6542 61.2505C77.4033 61.2505 78.6928 62.6357 78.6928 64.3076C78.6928 65.9795 77.4116 67.3647 75.6459 67.3647C73.8801 67.3647 72.6212 65.9397 72.6212 64.3615V64.353L72.624 64.3558ZM73.7882 64.3076C73.7882 65.3834 74.5457 66.3229 75.6709 66.3229C76.7961 66.3229 77.5314 65.2869 77.5314 64.3161C77.5314 63.3453 76.8435 62.2951 75.6653 62.2951C74.4872 62.2951 73.791 63.2658 73.791 64.3019V64.3104L73.7882 64.3076Z" fill="white"/>
<path d="M87.5996 63.1693C87.4826 62.9848 87.3406 62.8202 87.1707 62.6839C86.8727 62.4455 86.5078 62.2951 86.0622 62.2951C85.132 62.2951 84.1878 63.0104 84.1878 64.2934C84.1878 65.5764 85.1403 66.3229 86.0622 66.3229C86.5245 66.3229 86.9145 66.1867 87.2097 65.9653C87.5133 65.741 87.7166 65.4231 87.8029 65.074H85.6472V64.1174H89.1481C89.1648 64.5063 89.1091 65.1052 88.8891 65.5991C88.3488 66.8253 87.1066 67.3675 86.0678 67.3675C84.341 67.3675 83.0209 66.005 83.0209 64.2934C83.0209 62.5818 84.3967 61.2505 86.0845 61.2505C87.3879 61.2505 88.5382 62.0935 88.9114 63.1693H87.5996Z" fill="white"/>
<path d="M93.6991 61.3611H94.8633V67.2539H93.6991V61.3611Z" fill="white"/>
<path d="M99.6981 61.3612H102.94V62.4058H100.862V63.7428H102.901V64.7845H100.862V66.2094H102.94V67.2512H99.6981V61.3584V61.3612Z" fill="white"/>
<path d="M108.457 65.4231C108.496 66.2179 109.02 66.3712 109.271 66.3712C109.716 66.3712 110.059 66.005 110.059 65.5906C110.059 65.0882 109.644 64.9604 108.839 64.634C108.402 64.4751 107.394 64.1089 107.394 62.9933C107.394 61.8778 108.371 61.2505 109.307 61.2505C110.073 61.2505 111.089 61.6649 111.134 62.9706H109.986C109.939 62.701 109.839 62.2468 109.268 62.2468C108.886 62.2468 108.558 62.5165 108.558 62.9167C108.549 63.3538 108.861 63.4674 109.839 63.879C110.722 64.2678 111.215 64.6993 111.215 65.5338C111.215 66.4819 110.644 67.3647 109.285 67.3647C107.925 67.3647 107.293 66.5614 107.302 65.4231H108.457Z" fill="white"/>
<path d="M111.571 54.9887C114.535 54.9887 116.938 52.5398 116.938 49.5189C116.938 46.498 114.535 44.0491 111.571 44.0491C108.607 44.0491 106.204 46.498 106.204 49.5189C106.204 52.5398 108.607 54.9887 111.571 54.9887Z" fill="#519ED6"/>
</svg>
