<svg width="22" height="19" viewBox="0 0 22 19" fill="none" xmlns="http://www.w3.org/2000/svg">
<path d="M22 2.96759C21.1819 3.32214 20.3101 3.55715 19.4013 3.67126C20.3363 3.11973 21.0499 2.25305 21.3854 1.20841C20.5136 1.7219 19.5511 2.0846 18.5254 2.28701C17.6976 1.41625 16.5179 0.876953 15.2309 0.876953C12.7339 0.876953 10.7236 2.87929 10.7236 5.33398C10.7236 5.68717 10.7539 6.02678 10.8281 6.35009C7.0785 6.16942 3.76062 4.39394 1.53175 1.6893C1.14262 2.35629 0.914375 3.11973 0.914375 3.94158C0.914375 5.48477 1.71875 6.85271 2.91775 7.64468C2.19312 7.6311 1.48225 7.42326 0.88 7.09587C0.88 7.10946 0.88 7.12712 0.88 7.14478C0.88 9.31012 2.44338 11.1087 4.4935 11.523C4.12638 11.6222 3.72625 11.6697 3.311 11.6697C3.02225 11.6697 2.73075 11.6534 2.45712 11.5937C3.0415 13.3583 4.69975 14.6556 6.6715 14.6977C5.137 15.8836 3.18863 16.5981 1.07938 16.5981C0.7095 16.5981 0.35475 16.5818 0 16.537C1.99787 17.8099 4.36563 18.5366 6.919 18.5366C15.2185 18.5366 19.756 11.7444 19.756 5.85698C19.756 5.66001 19.7491 5.46982 19.7395 5.281C20.6346 4.6534 21.3867 3.86959 22 2.96759Z" fill="white"/>
</svg>
