<svg width="20" height="21" viewBox="0 0 20 21" fill="none" xmlns="http://www.w3.org/2000/svg">
<path fill-rule="evenodd" clip-rule="evenodd" d="M7.429 7.86939H11.143V9.71939C11.678 8.65539 13.05 7.69939 15.111 7.69939C19.062 7.69939 20 9.81739 20 13.7034V20.9004H16V14.5884C16 12.3754 15.465 11.1274 14.103 11.1274C12.214 11.1274 11.429 12.4724 11.429 14.5874V20.9004H7.429V7.86939ZM0.57 20.7304H4.57V7.69939H0.57V20.7304ZM5.143 3.45039C5.14315 3.78567 5.07666 4.11763 4.94739 4.42698C4.81812 4.73633 4.62865 5.0169 4.39 5.25239C3.9064 5.73302 3.25181 6.00204 2.57 6.00039C1.88939 5.99993 1.23631 5.73159 0.752 5.25339C0.514211 5.0171 0.325386 4.73621 0.196344 4.42682C0.0673015 4.11743 0.000579132 3.78562 0 3.45039C0 2.77339 0.27 2.12539 0.753 1.64739C1.23689 1.16855 1.89024 0.900091 2.571 0.900391C3.253 0.900391 3.907 1.16939 4.39 1.64739C4.872 2.12539 5.143 2.77339 5.143 3.45039Z" fill="white"/>
</svg>
