<svg width="22" height="23" viewBox="0 0 22 23" fill="none" xmlns="http://www.w3.org/2000/svg">
<path fill-rule="evenodd" clip-rule="evenodd" d="M6.875 0.900391H15.125C18.9214 0.900391 22 3.94191 22 7.69254V15.8431C22 19.5937 18.9214 22.6353 15.125 22.6353H6.875C3.07862 22.6353 0 19.5937 0 15.8431V7.69254C0 3.94191 3.07862 0.900391 6.875 0.900391ZM15.125 20.5972C17.7787 20.5972 19.9375 18.4644 19.9375 15.8426V7.69202C19.9375 5.07024 17.7787 2.9375 15.125 2.9375H6.875C4.22125 2.9375 2.0625 5.07024 2.0625 7.69202V15.8426C2.0625 18.4644 4.22125 20.5972 6.875 20.5972H15.125Z" fill="white"/>
<path fill-rule="evenodd" clip-rule="evenodd" d="M5.5 11.7678C5.5 8.76698 7.96263 6.33398 11 6.33398C14.0374 6.33398 16.5 8.76698 16.5 11.7678C16.5 14.7687 14.0374 17.2017 11 17.2017C7.96263 17.2017 5.5 14.7687 5.5 11.7678ZM7.5625 11.7673C7.5625 13.6393 9.10525 15.1636 11 15.1636C12.8948 15.1636 14.4375 13.6393 14.4375 11.7673C14.4375 9.89397 12.8948 8.37109 11 8.37109C9.10525 8.37109 7.5625 9.89397 7.5625 11.7673Z" fill="white"/>
<ellipse cx="16.9126" cy="5.927" rx="0.73291" ry="0.723877" fill="white"/>
</svg>
