<svg width="138" height="72" viewBox="0 0 138 72" fill="none" xmlns="http://www.w3.org/2000/svg">
<g clip-path="url(#clip0_2843_9892)">
<path d="M100.536 8.35655C98.3307 12.9606 97.2278 19.8611 97.2278 29.0749C97.2278 35.8789 97.9686 41.4935 99.4503 45.8932C100.932 50.3043 103.23 53.3982 106.36 55.1525C105.63 54.5223 105.104 53.807 104.773 52.9725C104.438 52.1521 104.277 51.3091 104.277 50.4604C104.277 48.9276 104.7 47.4828 105.572 46.143C106.438 44.8117 107.165 44.3803 107.889 43.9715C108.555 43.5911 109.329 43.3868 109.889 43.2335C110.454 43.0972 111.036 43.032 111.649 43.032C113.209 43.032 114.643 43.489 115.924 44.4058C118.267 46.0805 119.612 48.4621 120.787 51.0479C122.469 48.7771 123.678 45.9102 124.433 42.4359C125.185 38.9899 125.572 34.4908 125.572 28.9727C125.572 20.0058 124.38 13.1849 122.01 8.48144C119.62 3.80639 116.069 1.45326 111.318 1.45326C106.335 1.45326 102.742 3.75246 100.534 8.35655H100.536ZM30.6606 51.0224C30.6606 52.6858 30.7693 53.7275 30.9976 54.1874C31.1035 54.4173 31.4906 54.6557 32.1674 54.9083C32.833 55.1666 34.1142 55.3909 36.0108 55.5669C44.3996 56.2879 46.6751 53.0661 46.6751 53.0661C48.2932 51.2523 49.1009 47.6701 49.1009 42.3081L49.0926 28.459V27.4712L49.0368 19.4268C49.0341 -0.18457 32.8414 2.12599 32.8414 2.12599C31.7218 2.12599 31.1035 2.18276 30.9976 2.2963C30.7693 2.47796 30.6606 3.21882 30.6606 4.51886V51.0224ZM8.15966 6.41216C5.36619 9.94044 3.27178 16.2817 1.88201 25.4473H0.709473V1.30565H54.9998L83.9455 39.7251C84.6724 40.6987 85.1125 41.1841 85.2852 41.1841C85.4467 41.1841 85.5358 40.5993 85.5358 39.4753V15.7112C85.5358 10.5309 84.6724 6.97135 82.9457 5.03264C81.2161 3.10528 78.0884 2.12599 73.5849 2.12599V1.30565H97.3364V2.12599C93.3676 2.12599 90.602 3.10244 89.0451 5.03264C87.4798 6.97135 86.7 10.5223 86.7 15.7112V22.4896C87.7946 16.9828 90.3513 12.2311 94.3674 8.22598C97.9714 4.63524 101.907 2.33036 106.174 1.31133C107.859 0.913938 109.583 0.712402 111.371 0.712402C117.84 0.712402 123.5 3.06554 128.368 7.79168C133.891 13.1253 136.648 20.1591 136.648 28.8961C136.648 34.9223 135.228 40.114 132.379 44.4824C129.869 48.2917 126.444 51.329 122.085 53.5969C122.642 55.5186 123.246 57.5141 123.892 59.5578C124.527 61.5987 125.073 62.9612 125.516 63.6425C127.301 66.1943 129.173 67.4773 131.128 67.4773C132.749 67.4773 134.128 66.5122 135.27 64.5877C136.409 62.6745 136.974 60.0716 136.974 56.796C136.974 55.6747 136.899 54.4428 136.729 53.1399H137.381C137.492 53.7076 137.576 54.3719 137.634 55.1156C137.696 55.8536 137.718 56.5263 137.718 57.1394C137.718 61.3461 136.721 64.8205 134.702 67.5767C132.688 70.3414 129.933 71.7152 126.421 71.7152C125.085 71.7152 123.597 71.4569 121.985 70.9517C119.478 70.0831 117.495 68.4254 116.044 65.9729C114.596 63.492 113.866 60.4491 113.866 56.8215C113.532 56.8953 112.373 57.1508 111.359 57.1508C109.733 57.1508 108.157 56.9975 106.628 56.6909C102.124 55.7883 98.041 53.5515 94.3702 49.9977C90.3541 46.1032 87.7946 41.3345 86.7028 35.649V56.6966H84.7142L51.4348 11.6492L50.5157 10.5309C50.3514 10.5309 50.2623 11.0418 50.2623 12.0693V40.2644C50.2623 46.529 51.1006 50.6931 52.7606 52.734C54.4372 54.7806 57.551 55.8082 62.1158 55.8082V56.7051H7.34641V55.8082C10.5159 55.8082 13.0531 55.723 14.9526 55.5669C16.8437 55.3881 18.1332 55.1638 18.7988 54.9083C19.4645 54.6557 19.8962 54.3378 20.0911 53.9688C20.2833 53.6055 20.3919 52.6177 20.3919 51.0224V4.6097C20.3919 3.14502 20.2192 2.31901 19.8822 2.2225C19.7151 2.17424 19.133 2.12599 18.1332 2.12599C13.7745 2.12599 10.4518 3.55093 8.15966 6.41216Z" fill="#231F20"/>
<path d="M11.5436 62.8278H9.79175V61.7832H14.4513V62.8278H12.7078V67.676H11.5436V62.8278Z" fill="#1D1D1B"/>
<path d="M18.3086 61.786H21.5505V62.8306H19.4728V64.1676H21.5115V65.2093H19.4728V66.6342H21.5505V67.676H18.3086V61.7832V61.786Z" fill="#1D1D1B"/>
<path d="M31.8304 65.7032C31.4794 66.9209 30.3543 67.7895 29.0035 67.7895C27.2377 67.7895 25.9733 66.3645 25.9733 64.7239C25.9733 63.0832 27.1681 61.6753 28.9979 61.6753C30.6606 61.6838 31.6076 62.9328 31.8332 63.7928H30.6077C30.4267 63.3869 29.9114 62.7255 28.9895 62.717C27.8644 62.717 27.1374 63.6793 27.1374 64.7239C27.1374 65.7684 27.895 66.7449 28.9979 66.7449C30.0284 66.7449 30.4991 65.916 30.6077 65.7032H31.8332H31.8304Z" fill="#1D1D1B"/>
<path d="M36.3785 67.6787V61.7859H37.5427V64.1504H39.768V61.7859H40.9322V67.6787H39.768V65.195H37.5427V67.6787H36.3785Z" fill="#1D1D1B"/>
<path d="M49.4629 65.8705L49.4407 61.7859H50.5575V67.6787H49.527L46.8616 63.6025L46.8839 67.6787H45.7671V61.7859H46.8059L49.4629 65.8705Z" fill="#1D1D1B"/>
<path d="M55.1502 64.7806C55.1502 62.893 56.5707 61.6753 58.1805 61.6753C59.9295 61.6753 61.219 63.0605 61.219 64.7324C61.219 66.4043 59.9379 67.7895 58.1721 67.7895C56.4063 67.7895 55.1475 66.3645 55.1475 64.7863V64.7778L55.1502 64.7806ZM56.3144 64.7324C56.3144 65.8082 57.072 66.7477 58.1972 66.7477C59.3224 66.7477 60.0576 65.7117 60.0576 64.7409C60.0576 63.7701 59.3697 62.7199 58.1916 62.7199C57.0135 62.7199 56.3172 63.6906 56.3172 64.7267V64.7352L56.3144 64.7324Z" fill="#1D1D1B"/>
<path d="M65.8284 61.786H66.9926V66.6342H69.2262V67.676H65.8284V61.7832V61.786Z" fill="#1D1D1B"/>
<path d="M72.624 64.7806C72.624 62.893 74.0444 61.6753 75.6542 61.6753C77.4033 61.6753 78.6928 63.0605 78.6928 64.7324C78.6928 66.4043 77.4116 67.7895 75.6459 67.7895C73.8801 67.7895 72.6212 66.3645 72.6212 64.7863V64.7778L72.624 64.7806ZM73.7882 64.7324C73.7882 65.8082 74.5457 66.7477 75.6709 66.7477C76.7961 66.7477 77.5314 65.7117 77.5314 64.7409C77.5314 63.7701 76.8435 62.7199 75.6653 62.7199C74.4872 62.7199 73.791 63.6906 73.791 64.7267V64.7352L73.7882 64.7324Z" fill="#1D1D1B"/>
<path d="M87.5996 63.5941C87.4826 63.4096 87.3406 63.245 87.1707 63.1087C86.8727 62.8703 86.5078 62.7199 86.0622 62.7199C85.132 62.7199 84.1878 63.4352 84.1878 64.7182C84.1878 66.0012 85.1403 66.7477 86.0622 66.7477C86.5245 66.7477 86.9145 66.6115 87.2097 66.3901C87.5133 66.1658 87.7166 65.8479 87.8029 65.4988H85.6472V64.5422H89.1481C89.1648 64.9311 89.1091 65.53 88.8891 66.0239C88.3488 67.2501 87.1066 67.7923 86.0678 67.7923C84.341 67.7923 83.0209 66.4298 83.0209 64.7182C83.0209 63.0066 84.3967 61.6753 86.0845 61.6753C87.3879 61.6753 88.5382 62.5183 88.9114 63.5941H87.5996Z" fill="#1D1D1B"/>
<path d="M93.6991 61.7859H94.8633V67.6787H93.6991V61.7859Z" fill="#1D1D1B"/>
<path d="M99.6981 61.786H102.94V62.8306H100.862V64.1676H102.901V65.2093H100.862V66.6342H102.94V67.676H99.6981V61.7832V61.786Z" fill="#1D1D1B"/>
<path d="M108.457 65.8479C108.496 66.6427 109.02 66.796 109.271 66.796C109.716 66.796 110.059 66.4298 110.059 66.0154C110.059 65.513 109.644 65.3852 108.839 65.0588C108.402 64.8999 107.394 64.5337 107.394 63.4181C107.394 62.3026 108.371 61.6753 109.307 61.6753C110.073 61.6753 111.089 62.0897 111.134 63.3954H109.986C109.939 63.1258 109.839 62.6716 109.268 62.6716C108.886 62.6716 108.558 62.9413 108.558 63.3415C108.549 63.7786 108.861 63.8922 109.839 64.3038C110.722 64.6926 111.215 65.1241 111.215 65.9586C111.215 66.9067 110.644 67.7895 109.285 67.7895C107.925 67.7895 107.293 66.9862 107.302 65.8479H108.457Z" fill="#1D1D1B"/>
<path d="M111.571 55.4135C114.535 55.4135 116.938 52.9646 116.938 49.9437C116.938 46.9228 114.535 44.4739 111.571 44.4739C108.607 44.4739 106.204 46.9228 106.204 49.9437C106.204 52.9646 108.607 55.4135 111.571 55.4135Z" fill="#519ED6"/>
</g>
<defs>
<clipPath id="clip0_2843_9892">
<rect width="137" height="71" fill="white" transform="translate(0.709473 0.712402)"/>
</clipPath>
</defs>
</svg>
