<svg width="191" height="27" viewBox="0 0 191 27" fill="none" xmlns="http://www.w3.org/2000/svg">
<path d="M35.776 19.604C35.072 19.604 34.3893 19.4706 33.728 19.204C33.0773 18.9373 32.5013 18.5586 32 18.068L33.088 16.804C33.4613 17.156 33.888 17.444 34.368 17.668C34.848 17.8813 35.328 17.988 35.808 17.988C36.4053 17.988 36.8587 17.8653 37.168 17.62C37.4773 17.3746 37.632 17.0493 37.632 16.644C37.632 16.2066 37.4773 15.892 37.168 15.7C36.8693 15.508 36.4853 15.3106 36.016 15.108L34.576 14.484C34.2347 14.3346 33.8987 14.1426 33.568 13.908C33.248 13.6733 32.9813 13.3746 32.768 13.012C32.5653 12.6493 32.464 12.212 32.464 11.7C32.464 11.1453 32.6133 10.6493 32.912 10.212C33.2213 9.76397 33.6373 9.41197 34.16 9.15597C34.6933 8.8893 35.3013 8.75597 35.984 8.75597C36.592 8.75597 37.1787 8.87863 37.744 9.12397C38.3093 9.35863 38.7947 9.67863 39.2 10.084L38.256 11.268C37.9253 10.9906 37.5733 10.772 37.2 10.612C36.8373 10.452 36.432 10.372 35.984 10.372C35.4933 10.372 35.0933 10.484 34.784 10.708C34.4853 10.9213 34.336 11.22 34.336 11.604C34.336 11.8706 34.4107 12.0946 34.56 12.276C34.72 12.4466 34.928 12.596 35.184 12.724C35.44 12.8413 35.712 12.9586 36 13.076L37.424 13.668C38.0427 13.9346 38.5493 14.2866 38.944 14.724C39.3387 15.1506 39.536 15.7426 39.536 16.5C39.536 17.0653 39.3867 17.5826 39.088 18.052C38.7893 18.5213 38.3573 18.9 37.792 19.188C37.2373 19.4653 36.5653 19.604 35.776 19.604Z" fill="#343434"/>
<path d="M43.2147 19.604C42.5321 19.604 41.9721 19.3906 41.5347 18.964C41.1081 18.5373 40.8947 17.9826 40.8947 17.3C40.8947 16.4573 41.2627 15.8066 41.9987 15.348C42.7347 14.8786 43.9081 14.5586 45.5188 14.388C45.5081 13.972 45.3961 13.6146 45.1827 13.316C44.9801 13.0066 44.6121 12.852 44.0787 12.852C43.6947 12.852 43.3161 12.9266 42.9427 13.076C42.5801 13.2253 42.2227 13.4066 41.8707 13.62L41.1987 12.388C41.6361 12.1106 42.1267 11.8706 42.6707 11.668C43.2254 11.4653 43.8121 11.364 44.4307 11.364C45.4121 11.364 46.1427 11.6573 46.6228 12.244C47.1134 12.82 47.3588 13.6573 47.3588 14.756V19.412H45.8387L45.7107 18.548H45.6467C45.2947 18.8466 44.9161 19.0973 44.5107 19.3C44.1161 19.5026 43.6841 19.604 43.2147 19.604ZM43.8067 18.164C44.1267 18.164 44.4147 18.0893 44.6707 17.94C44.9374 17.78 45.2201 17.5666 45.5188 17.3V15.54C44.4521 15.6786 43.7108 15.8866 43.2948 16.164C42.8787 16.4306 42.6707 16.7613 42.6707 17.156C42.6707 17.508 42.7774 17.764 42.9907 17.924C43.2041 18.084 43.4761 18.164 43.8067 18.164Z" fill="#343434"/>
<path d="M51.3527 19.412L48.6167 11.556H50.4887L51.7367 15.636C51.8434 16.02 51.9501 16.4093 52.0567 16.804C52.1741 17.1986 52.2861 17.5986 52.3927 18.004H52.4567C52.5741 17.5986 52.6861 17.1986 52.7927 16.804C52.9101 16.4093 53.0221 16.02 53.1287 15.636L54.3767 11.556H56.1528L53.4807 19.412H51.3527Z" fill="#343434"/>
<path d="M60.8129 19.604C60.0875 19.604 59.4315 19.444 58.8449 19.124C58.2582 18.7933 57.7942 18.324 57.4529 17.716C57.1115 17.0973 56.9409 16.356 56.9409 15.492C56.9409 14.6386 57.1115 13.9026 57.4529 13.284C57.8049 12.6653 58.2582 12.1906 58.8129 11.86C59.3675 11.5293 59.9489 11.364 60.5569 11.364C61.2715 11.364 61.8689 11.524 62.3489 11.844C62.8289 12.1533 63.1915 12.5906 63.4369 13.156C63.6822 13.7106 63.8049 14.356 63.8049 15.092C63.8049 15.476 63.7782 15.7746 63.7249 15.988H58.7329C58.8182 16.6813 59.0689 17.22 59.4849 17.604C59.9009 17.988 60.4235 18.18 61.0529 18.18C61.3942 18.18 61.7089 18.132 61.9969 18.036C62.2955 17.9293 62.5889 17.7853 62.8769 17.604L63.5009 18.756C63.1275 19.0013 62.7115 19.204 62.2529 19.364C61.7942 19.524 61.3142 19.604 60.8129 19.604ZM58.7169 14.74H62.2049C62.2049 14.132 62.0715 13.6573 61.8049 13.316C61.5382 12.964 61.1382 12.788 60.6049 12.788C60.1462 12.788 59.7355 12.9586 59.3729 13.3C59.0209 13.6306 58.8022 14.1106 58.7169 14.74Z" fill="#343434"/>
<path d="M71.5974 19.604C70.6907 19.604 70.0454 19.3426 69.6614 18.82C69.288 18.2866 69.1014 17.5986 69.1014 16.756V13.012H67.9814V11.636L69.1974 11.556L69.4214 9.41197H70.9574V11.556H72.9574V13.012H70.9574V16.756C70.9574 17.6733 71.3254 18.132 72.0614 18.132C72.2 18.132 72.344 18.116 72.4934 18.084C72.6427 18.0413 72.7707 17.9986 72.8774 17.956L73.1974 19.316C72.984 19.3906 72.7387 19.4546 72.4614 19.508C72.1947 19.572 71.9067 19.604 71.5974 19.604Z" fill="#343434"/>
<path d="M77.6086 19.604C76.958 19.604 76.35 19.444 75.7846 19.124C75.2193 18.7933 74.7606 18.324 74.4086 17.716C74.0566 17.0973 73.8806 16.356 73.8806 15.492C73.8806 14.6173 74.0566 13.876 74.4086 13.268C74.7606 12.6493 75.2193 12.18 75.7846 11.86C76.35 11.5293 76.958 11.364 77.6086 11.364C78.27 11.364 78.8833 11.5293 79.4486 11.86C80.014 12.18 80.4726 12.6493 80.8246 13.268C81.1766 13.876 81.3526 14.6173 81.3526 15.492C81.3526 16.356 81.1766 17.0973 80.8246 17.716C80.4726 18.324 80.014 18.7933 79.4486 19.124C78.8833 19.444 78.27 19.604 77.6086 19.604ZM77.6086 18.1C78.1846 18.1 78.638 17.86 78.9686 17.38C79.2993 16.9 79.4646 16.2706 79.4646 15.492C79.4646 14.7026 79.2993 14.068 78.9686 13.588C78.638 13.108 78.1846 12.868 77.6086 12.868C77.0326 12.868 76.5793 13.108 76.2486 13.588C75.9286 14.068 75.7686 14.7026 75.7686 15.492C75.7686 16.2706 75.9286 16.9 76.2486 17.38C76.5793 17.86 77.0326 18.1 77.6086 18.1Z" fill="#343434"/>
<path d="M88.745 13.844L88.377 15.124H91.049L90.681 13.844C90.5103 13.2893 90.345 12.7186 90.185 12.132C90.0357 11.5453 89.8863 10.964 89.737 10.388H89.673C89.5343 10.9746 89.385 11.5613 89.225 12.148C89.0757 12.724 88.9157 13.2893 88.745 13.844ZM85.241 19.412L88.649 8.94797H90.825L94.233 19.412H92.281L91.465 16.58H87.945L87.129 19.412H85.241Z" fill="#343434"/>
<path d="M95.3949 22.516V11.556H96.9149L97.0429 12.388H97.1069C97.4375 12.1106 97.8055 11.8706 98.2109 11.668C98.6269 11.4653 99.0482 11.364 99.4749 11.364C100.456 11.364 101.214 11.7266 101.747 12.452C102.291 13.1773 102.563 14.148 102.563 15.364C102.563 16.26 102.403 17.028 102.083 17.668C101.763 18.2973 101.347 18.7773 100.835 19.108C100.334 19.4386 99.7895 19.604 99.2029 19.604C98.8615 19.604 98.5202 19.5293 98.1789 19.38C97.8375 19.22 97.5069 19.0066 97.1869 18.74L97.2349 20.052V22.516H95.3949ZM98.8189 18.084C99.3415 18.084 99.7789 17.8546 100.131 17.396C100.483 16.9373 100.659 16.2653 100.659 15.38C100.659 14.5906 100.526 13.9773 100.259 13.54C99.9922 13.1026 99.5602 12.884 98.9629 12.884C98.4082 12.884 97.8322 13.1773 97.2349 13.764V17.428C97.5229 17.6626 97.8002 17.8333 98.0669 17.94C98.3335 18.036 98.5842 18.084 98.8189 18.084Z" fill="#343434"/>
<path d="M104.458 22.516V11.556H105.978L106.106 12.388H106.17C106.501 12.1106 106.869 11.8706 107.274 11.668C107.69 11.4653 108.111 11.364 108.538 11.364C109.519 11.364 110.277 11.7266 110.81 12.452C111.354 13.1773 111.626 14.148 111.626 15.364C111.626 16.26 111.466 17.028 111.146 17.668C110.826 18.2973 110.41 18.7773 109.898 19.108C109.397 19.4386 108.853 19.604 108.266 19.604C107.925 19.604 107.583 19.5293 107.242 19.38C106.901 19.22 106.57 19.0066 106.25 18.74L106.298 20.052V22.516H104.458ZM107.882 18.084C108.405 18.084 108.842 17.8546 109.194 17.396C109.546 16.9373 109.722 16.2653 109.722 15.38C109.722 14.5906 109.589 13.9773 109.322 13.54C109.055 13.1026 108.623 12.884 108.026 12.884C107.471 12.884 106.895 13.1773 106.298 13.764V17.428C106.586 17.6626 106.863 17.8333 107.13 17.94C107.397 18.036 107.647 18.084 107.882 18.084Z" fill="#343434"/>
<path d="M115.313 19.604C114.663 19.604 114.199 19.4066 113.921 19.012C113.655 18.6173 113.521 18.0786 113.521 17.396V8.11597H115.361V17.492C115.361 17.716 115.404 17.876 115.489 17.972C115.575 18.0573 115.665 18.1 115.761 18.1C115.804 18.1 115.841 18.1 115.873 18.1C115.916 18.0893 115.975 18.0786 116.049 18.068L116.289 19.444C116.183 19.4866 116.044 19.524 115.873 19.556C115.713 19.588 115.527 19.604 115.313 19.604Z" fill="#343434"/>
<path d="M121.257 19.604C120.532 19.604 119.876 19.444 119.289 19.124C118.702 18.7933 118.238 18.324 117.897 17.716C117.556 17.0973 117.385 16.356 117.385 15.492C117.385 14.6386 117.556 13.9026 117.897 13.284C118.249 12.6653 118.702 12.1906 119.257 11.86C119.812 11.5293 120.393 11.364 121.001 11.364C121.716 11.364 122.313 11.524 122.793 11.844C123.273 12.1533 123.636 12.5906 123.881 13.156C124.126 13.7106 124.249 14.356 124.249 15.092C124.249 15.476 124.222 15.7746 124.169 15.988H119.177C119.262 16.6813 119.513 17.22 119.929 17.604C120.345 17.988 120.868 18.18 121.497 18.18C121.838 18.18 122.153 18.132 122.441 18.036C122.74 17.9293 123.033 17.7853 123.321 17.604L123.945 18.756C123.572 19.0013 123.156 19.204 122.697 19.364C122.238 19.524 121.758 19.604 121.257 19.604ZM119.161 14.74H122.649C122.649 14.132 122.516 13.6573 122.249 13.316C121.982 12.964 121.582 12.788 121.049 12.788C120.59 12.788 120.18 12.9586 119.817 13.3C119.465 13.6306 119.246 14.1106 119.161 14.74Z" fill="#343434"/>
<path d="M133.61 19.604C132.735 19.604 131.94 19.396 131.226 18.98C130.511 18.564 129.94 17.956 129.514 17.156C129.098 16.3453 128.89 15.364 128.89 14.212C128.89 13.0706 129.103 12.0946 129.53 11.284C129.967 10.4626 130.548 9.83863 131.274 9.41197C131.999 8.97463 132.799 8.75597 133.674 8.75597C134.335 8.75597 134.922 8.8893 135.434 9.15597C135.946 9.42263 136.367 9.73197 136.698 10.084L135.706 11.284C135.439 11.0066 135.14 10.788 134.81 10.628C134.49 10.4573 134.127 10.372 133.722 10.372C133.156 10.372 132.65 10.5266 132.202 10.836C131.764 11.1346 131.418 11.5666 131.162 12.132C130.916 12.6973 130.794 13.3746 130.794 14.164C130.794 15.3586 131.055 16.2973 131.578 16.98C132.1 17.652 132.799 17.988 133.674 17.988C134.143 17.988 134.559 17.892 134.922 17.7C135.284 17.4973 135.615 17.236 135.914 16.916L136.906 18.084C136.479 18.5746 135.988 18.9533 135.434 19.22C134.89 19.476 134.282 19.604 133.61 19.604Z" fill="#343434"/>
<path d="M140.428 19.604C139.746 19.604 139.186 19.3906 138.748 18.964C138.322 18.5373 138.108 17.9826 138.108 17.3C138.108 16.4573 138.476 15.8066 139.212 15.348C139.948 14.8786 141.122 14.5586 142.732 14.388C142.722 13.972 142.61 13.6146 142.396 13.316C142.194 13.0066 141.826 12.852 141.292 12.852C140.908 12.852 140.53 12.9266 140.156 13.076C139.794 13.2253 139.436 13.4066 139.084 13.62L138.412 12.388C138.85 12.1106 139.34 11.8706 139.884 11.668C140.439 11.4653 141.026 11.364 141.644 11.364C142.626 11.364 143.356 11.6573 143.836 12.244C144.327 12.82 144.572 13.6573 144.572 14.756V19.412H143.052L142.924 18.548H142.86C142.508 18.8466 142.13 19.0973 141.724 19.3C141.33 19.5026 140.898 19.604 140.428 19.604ZM141.02 18.164C141.34 18.164 141.628 18.0893 141.884 17.94C142.151 17.78 142.434 17.5666 142.732 17.3V15.54C141.666 15.6786 140.924 15.8866 140.508 16.164C140.092 16.4306 139.884 16.7613 139.884 17.156C139.884 17.508 139.991 17.764 140.204 17.924C140.418 18.084 140.69 18.164 141.02 18.164Z" fill="#343434"/>
<path d="M148.598 19.604C147.948 19.604 147.484 19.4066 147.206 19.012C146.94 18.6173 146.806 18.0786 146.806 17.396V8.11597H148.646V17.492C148.646 17.716 148.689 17.876 148.774 17.972C148.86 18.0573 148.95 18.1 149.046 18.1C149.089 18.1 149.126 18.1 149.158 18.1C149.201 18.0893 149.26 18.0786 149.334 18.068L149.574 19.444C149.468 19.4866 149.329 19.524 149.158 19.556C148.998 19.588 148.812 19.604 148.598 19.604Z" fill="#343434"/>
<path d="M154.542 19.604C153.817 19.604 153.161 19.444 152.574 19.124C151.987 18.7933 151.523 18.324 151.182 17.716C150.841 17.0973 150.67 16.356 150.67 15.492C150.67 14.6386 150.841 13.9026 151.182 13.284C151.534 12.6653 151.987 12.1906 152.542 11.86C153.097 11.5293 153.678 11.364 154.286 11.364C155.001 11.364 155.598 11.524 156.078 11.844C156.558 12.1533 156.921 12.5906 157.166 13.156C157.411 13.7106 157.534 14.356 157.534 15.092C157.534 15.476 157.507 15.7746 157.454 15.988H152.462C152.547 16.6813 152.798 17.22 153.214 17.604C153.63 17.988 154.153 18.18 154.782 18.18C155.123 18.18 155.438 18.132 155.726 18.036C156.025 17.9293 156.318 17.7853 156.606 17.604L157.23 18.756C156.857 19.0013 156.441 19.204 155.982 19.364C155.523 19.524 155.043 19.604 154.542 19.604ZM152.446 14.74H155.934C155.934 14.132 155.801 13.6573 155.534 13.316C155.267 12.964 154.867 12.788 154.334 12.788C153.875 12.788 153.465 12.9586 153.102 13.3C152.75 13.6306 152.531 14.1106 152.446 14.74Z" fill="#343434"/>
<path d="M159.323 19.412V11.556H160.843L160.971 12.612H161.035C161.387 12.2706 161.771 11.9773 162.188 11.732C162.604 11.4866 163.078 11.364 163.611 11.364C164.454 11.364 165.067 11.636 165.451 12.18C165.835 12.724 166.027 13.492 166.027 14.484V19.412H164.188V14.724C164.188 14.0733 164.091 13.6146 163.899 13.348C163.707 13.0813 163.393 12.948 162.955 12.948C162.614 12.948 162.31 13.0333 162.044 13.204C161.788 13.364 161.494 13.604 161.163 13.924V19.412H159.323Z" fill="#343434"/>
<path d="M171.061 19.604C170.079 19.604 169.295 19.2413 168.709 18.516C168.122 17.7906 167.829 16.7826 167.829 15.492C167.829 14.6386 167.983 13.9026 168.293 13.284C168.613 12.6653 169.029 12.1906 169.541 11.86C170.053 11.5293 170.591 11.364 171.157 11.364C171.605 11.364 171.983 11.444 172.293 11.604C172.613 11.7533 172.922 11.9613 173.221 12.228L173.157 10.964V8.11597H174.997V19.412H173.477L173.349 18.564H173.285C172.997 18.852 172.661 19.0973 172.277 19.3C171.893 19.5026 171.487 19.604 171.061 19.604ZM171.509 18.084C172.095 18.084 172.645 17.7906 173.157 17.204V13.54C172.89 13.2946 172.623 13.124 172.357 13.028C172.09 12.932 171.823 12.884 171.557 12.884C171.055 12.884 170.623 13.1133 170.261 13.572C169.909 14.02 169.733 14.6546 169.733 15.476C169.733 16.3186 169.887 16.964 170.197 17.412C170.506 17.86 170.943 18.084 171.509 18.084Z" fill="#343434"/>
<path d="M179.276 19.604C178.593 19.604 178.033 19.3906 177.596 18.964C177.169 18.5373 176.956 17.9826 176.956 17.3C176.956 16.4573 177.324 15.8066 178.06 15.348C178.796 14.8786 179.969 14.5586 181.58 14.388C181.569 13.972 181.457 13.6146 181.244 13.316C181.041 13.0066 180.673 12.852 180.14 12.852C179.756 12.852 179.377 12.9266 179.004 13.076C178.641 13.2253 178.284 13.4066 177.932 13.62L177.26 12.388C177.697 12.1106 178.188 11.8706 178.732 11.668C179.287 11.4653 179.873 11.364 180.492 11.364C181.473 11.364 182.204 11.6573 182.684 12.244C183.175 12.82 183.42 13.6573 183.42 14.756V19.412H181.9L181.772 18.548H181.708C181.356 18.8466 180.977 19.0973 180.572 19.3C180.177 19.5026 179.745 19.604 179.276 19.604ZM179.868 18.164C180.188 18.164 180.476 18.0893 180.732 17.94C180.999 17.78 181.281 17.5666 181.58 17.3V15.54C180.513 15.6786 179.772 15.8866 179.356 16.164C178.94 16.4306 178.732 16.7613 178.732 17.156C178.732 17.508 178.839 17.764 179.052 17.924C179.265 18.084 179.537 18.164 179.868 18.164Z" fill="#343434"/>
<path d="M185.654 19.412V11.556H187.174L187.302 12.948H187.366C187.643 12.436 187.979 12.0466 188.374 11.78C188.769 11.5026 189.174 11.364 189.59 11.364C189.963 11.364 190.262 11.4173 190.486 11.524L190.166 13.124C190.027 13.0813 189.899 13.0493 189.782 13.028C189.665 13.0066 189.521 12.996 189.35 12.996C189.041 12.996 188.715 13.1186 188.374 13.364C188.033 13.5986 187.739 14.0146 187.494 14.612V19.412H185.654Z" fill="#343434"/>
<path fill-rule="evenodd" clip-rule="evenodd" d="M17.5597 0.318116C16.1618 0.489113 14.7526 1.14078 13.726 2.09094C13.2097 2.56879 12.8442 3.04126 12.4988 3.67745C12.1614 4.29886 11.9777 4.86315 11.9083 5.49153C11.8701 5.8377 11.8932 6.23251 11.9562 6.3093C12.0142 6.37991 12.643 6.37205 13.0521 6.29563C14.0465 6.10987 15.0894 5.60421 15.8749 4.92695C16.9675 3.98486 17.7001 2.67559 17.868 1.36491C17.9018 1.10172 17.9051 0.613727 17.8745 0.432009C17.8554 0.318616 17.8503 0.313623 17.7514 0.310522C17.6946 0.308761 17.6083 0.312177 17.5597 0.318116ZM16.6013 6.70098C15.9305 6.78487 15.2279 6.96982 14.1389 7.34923C12.6513 7.86753 12.3218 7.92789 11.6765 7.80046C11.3837 7.74262 11.0738 7.64689 10.3629 7.39461C9.02914 6.9213 8.4445 6.77858 7.62162 6.72548C7.32433 6.70629 6.66597 6.74587 6.2678 6.80686C4.35386 7.10003 2.65984 8.10136 1.53675 9.60335C0.170787 11.4302 -0.292439 13.8143 0.17866 16.5935C0.503019 18.5071 1.28818 20.5418 2.33386 22.1786C3.13139 23.427 4.54498 25.0701 5.35689 25.6925C6.37488 26.4728 7.2972 26.7131 8.45981 26.5007C8.84674 26.4301 9.10897 26.3506 9.8481 26.0799C10.1968 25.9522 10.6252 25.8061 10.8001 25.7551C11.7433 25.4804 12.732 25.4311 13.7218 25.6094C14.113 25.68 14.5064 25.8002 15.1575 26.0484C16.0366 26.3835 16.4069 26.4783 17.0264 26.5267C18.1384 26.6136 19.0933 26.2732 20.0773 25.4392C20.3459 25.2115 20.8691 24.6671 21.2167 24.2538C22.3699 22.8823 23.0942 21.758 23.6632 20.4565C23.8286 20.0782 24.0161 19.5892 23.9989 19.5811C23.9931 19.5784 23.8431 19.5111 23.6654 19.4316C22.4404 18.8835 21.3796 17.9695 20.7632 16.931C20.3219 16.1875 20.0978 15.4048 20.061 14.478C20.003 13.0196 20.5059 11.701 21.5466 10.5828C21.9472 10.1524 22.5222 9.68949 23.0529 9.3702L23.2379 9.25889L23.1413 9.13877C22.0975 7.83993 20.4842 6.98642 18.5771 6.72406C18.1363 6.6634 17.0073 6.65024 16.6013 6.70098Z" fill="black"/>
</svg>
