<svg width="141" height="32" viewBox="0 0 141 32" fill="none" xmlns="http://www.w3.org/2000/svg">
<path d="M43.9004 5.4495C43.6459 4.51354 43.1418 3.65992 42.4393 2.97525C41.7367 2.29058 40.8608 1.79926 39.9004 1.55123C36.4204 0.57666 22.4204 0.57666 22.4204 0.57666C22.4204 0.57666 8.42043 0.57666 4.93043 1.55123C3.9705 1.80017 3.09507 2.29179 2.39268 2.97632C1.69029 3.66085 1.18586 4.51399 0.930428 5.4495C-0.0695717 11.4723 -0.529572 20.6528 0.930428 26.4417C1.18956 27.3755 1.69522 28.2267 2.39704 28.9106C3.09886 29.5946 3.97233 30.0875 4.93043 30.34C8.41043 31.3146 22.4204 31.3146 22.4204 31.3146C22.4204 31.3146 36.4204 31.3146 39.9004 30.34C40.8594 30.0893 41.7339 29.597 42.436 28.9128C43.1381 28.2285 43.6431 27.3764 43.9004 26.4417C45.0404 20.4384 45.3804 11.2579 43.9004 5.4495Z" fill="#E52521"/>
<path d="M17.9902 22.5142L29.6102 15.9554L17.9902 9.39661V22.5142Z" fill="white"/>
<path d="M65.0703 28.4883C64.124 27.8323 63.4499 26.8677 63.1703 25.7692C62.7549 24.1779 62.5698 22.5377 62.6203 20.8964V18.1189C62.5626 16.4434 62.7751 14.7696 63.2503 13.1584C63.5668 12.0504 64.2753 11.0872 65.2503 10.4393C66.3281 9.82604 67.5631 9.52513 68.8103 9.57194C70.034 9.50794 71.2484 9.81065 72.2903 10.4393C73.2291 11.1083 73.9091 12.0663 74.2203 13.1584C74.6688 14.7643 74.871 16.426 74.8203 18.0896V20.8671C74.8677 22.5113 74.6655 24.1534 74.2203 25.74C73.9218 26.8378 73.2391 27.7996 72.2903 28.459C71.2025 29.0747 69.9572 29.3756 68.7003 29.3264C67.4319 29.4028 66.1687 29.1111 65.0703 28.4883ZM70.0703 25.4866C70.3736 24.4982 70.4987 23.4662 70.4403 22.4362V16.4622C70.4962 15.4483 70.371 14.4326 70.0703 13.4605C69.9986 13.1806 69.8323 12.9323 69.5984 12.7556C69.3644 12.5788 69.0763 12.4838 68.7803 12.4859C68.4864 12.483 68.2002 12.5781 67.9692 12.7553C67.7383 12.9326 67.5764 13.1813 67.5103 13.4605C67.2108 14.4328 67.0856 15.4483 67.1403 16.4622V22.4362C67.0909 23.464 67.2056 24.493 67.4803 25.4866C67.5474 25.7707 67.7138 26.0234 67.9509 26.2012C68.1881 26.379 68.4813 26.4708 68.7803 26.4611C69.0703 26.4535 69.3499 26.3544 69.5771 26.1787C69.8043 26.003 69.9668 25.76 70.0403 25.4866H70.0703ZM133.07 20.9159V21.8905L133.15 24.6875C133.185 25.1664 133.343 25.6291 133.61 26.0324C133.747 26.1787 133.916 26.2926 134.105 26.3652C134.294 26.4379 134.498 26.4674 134.7 26.4515C134.998 26.4962 135.302 26.4428 135.565 26.2998C135.827 26.1568 136.033 25.9323 136.15 25.662C136.446 24.863 136.582 24.016 136.55 23.1671L140.37 23.3913C140.388 23.6152 140.388 23.8399 140.37 24.0637C140.431 24.7891 140.329 25.5187 140.072 26.2019C139.815 26.8851 139.408 27.5057 138.88 28.0205C137.697 28.9535 136.2 29.4227 134.68 29.3362C132.49 29.3362 130.97 28.6637 130.11 27.387C129.25 26.1104 128.78 23.9955 128.78 21.218V17.8265C128.88 13.0609 129.78 9.57193 134.78 9.56219C135.997 9.49154 137.207 9.77304 138.26 10.3712C139.125 10.9868 139.738 11.881 139.99 12.8952C140.369 14.4457 140.534 16.0386 140.48 17.6316V20.9159H133.09H133.07ZM133.64 12.8465C133.373 13.2388 133.214 13.6921 133.18 14.1621C133.09 14.7858 133.07 16.9689 133.07 16.9689V18.343H136.29V16.9689C136.29 18.343 136.29 14.8053 136.17 14.1621C136.151 13.6803 135.992 13.2137 135.71 12.8172C135.582 12.6864 135.426 12.5839 135.254 12.5167C135.081 12.4495 134.896 12.419 134.71 12.4275C134.513 12.4174 134.316 12.4498 134.132 12.5222C133.949 12.5946 133.785 12.7053 133.65 12.8465H133.64ZM54.3003 20.5553L49.3003 2.84741H53.7003C53.7003 2.84741 55.7503 11.7257 56.4603 15.9066H56.5703C57.3703 11.4723 59.3903 2.84741 59.3903 2.84741H63.7903L58.7003 20.5261V29.0145H54.3603V20.5553H54.3003Z" fill="white"/>
<path d="M89.1502 9.9032V29.0438H85.7002L85.3202 26.6952H85.2402C84.881 27.4944 84.2883 28.1728 83.5361 28.6459C82.7839 29.119 81.9054 29.366 81.0102 29.3558C77.6202 29.3558 77.2502 26.549 77.2102 24.2002V9.9032H81.6402V23.9468C81.5965 24.5678 81.6956 25.1904 81.9302 25.7693C82.3402 26.549 83.3902 26.3444 83.9302 25.9643C84.2631 25.7461 84.5319 25.4471 84.7102 25.0969V9.9032H89.1502Z" fill="white"/>
<path d="M101.15 6.31688H96.7503V29.0438H92.4303V6.31688H88.0303V2.84736H101.15V6.31688ZM126.42 12.9634C126.274 11.9761 125.824 11.0553 125.13 10.3223C124.442 9.75647 123.559 9.46727 122.66 9.5135C121.852 9.51297 121.062 9.74701 120.39 10.1859C119.693 10.6224 119.127 11.2311 118.75 11.9499V1.86304H114.49V29.0145H118.14L118.6 27.2018H118.69C119.045 27.8395 119.57 28.3717 120.21 28.7417C120.91 29.1109 121.694 29.3019 122.49 29.2972C123.184 29.3174 123.867 29.1365 124.455 28.7773C125.042 28.4181 125.507 27.8969 125.79 27.2799C126.613 25.2891 126.978 23.1467 126.86 21.0036V17.9727C126.875 16.302 126.721 14.6339 126.4 12.9927L126.42 12.9634ZM122.42 20.7599C122.436 21.8539 122.379 22.9477 122.25 24.0345C122.203 24.6391 121.993 25.221 121.64 25.7206C121.507 25.8846 121.337 26.0159 121.142 26.1039C120.948 26.1919 120.735 26.2341 120.52 26.2273C120.165 26.2389 119.813 26.1539 119.503 25.9818C119.194 25.8097 118.941 25.5573 118.77 25.2527V14.3571C118.894 13.865 119.162 13.4182 119.54 13.0706C119.673 12.9081 119.842 12.777 120.034 12.6868C120.226 12.5966 120.437 12.5499 120.65 12.5499C120.864 12.5499 121.074 12.5966 121.266 12.6868C121.458 12.777 121.627 12.9081 121.76 13.0706C122.064 13.6037 122.242 14.1965 122.28 14.8053C122.36 15.624 122.42 16.7545 122.42 18.2846V20.7599Z" fill="white"/>
<path d="M111.8 9.9032V29.0438H108.34L107.97 26.6952H107.88C107.524 27.4944 106.933 28.1731 106.183 28.6465C105.432 29.1198 104.554 29.3665 103.66 29.3557C100.27 29.3557 99.9004 26.5489 99.8604 24.2002V9.9032H104.29V23.9468C104.247 24.5678 104.346 25.1904 104.58 25.7693C104.99 26.5489 106.04 26.3443 106.58 25.9642C106.913 25.746 107.182 25.4471 107.36 25.0969V9.9032H111.8Z" fill="white"/>
</svg>
