<svg width="192" height="27" viewBox="0 0 192 27" fill="none" xmlns="http://www.w3.org/2000/svg">
<path d="M36.776 19.1921C36.072 19.1921 35.3893 19.0588 34.728 18.7921C34.0773 18.5254 33.5013 18.1468 33 17.6561L34.088 16.3921C34.4613 16.7441 34.888 17.0321 35.368 17.2561C35.848 17.4694 36.328 17.5761 36.808 17.5761C37.4053 17.5761 37.8587 17.4534 38.168 17.2081C38.4773 16.9628 38.632 16.6374 38.632 16.2321C38.632 15.7948 38.4773 15.4801 38.168 15.2881C37.8693 15.0961 37.4853 14.8988 37.016 14.6961L35.576 14.0721C35.2347 13.9228 34.8987 13.7308 34.568 13.4961C34.248 13.2614 33.9813 12.9628 33.768 12.6001C33.5653 12.2374 33.464 11.8001 33.464 11.2881C33.464 10.7334 33.6133 10.2374 33.912 9.8001C34.2213 9.3521 34.6373 9.0001 35.16 8.7441C35.6933 8.47744 36.3013 8.3441 36.984 8.3441C37.592 8.3441 38.1787 8.46677 38.744 8.7121C39.3093 8.94677 39.7947 9.26677 40.2 9.6721L39.256 10.8561C38.9253 10.5788 38.5733 10.3601 38.2 10.2001C37.8373 10.0401 37.432 9.9601 36.984 9.9601C36.4933 9.9601 36.0933 10.0721 35.784 10.2961C35.4853 10.5094 35.336 10.8081 35.336 11.1921C35.336 11.4588 35.4107 11.6828 35.56 11.8641C35.72 12.0348 35.928 12.1841 36.184 12.3121C36.44 12.4294 36.712 12.5468 37 12.6641L38.424 13.2561C39.0427 13.5228 39.5493 13.8748 39.944 14.3121C40.3387 14.7388 40.536 15.3308 40.536 16.0881C40.536 16.6534 40.3867 17.1708 40.088 17.6401C39.7893 18.1094 39.3573 18.4881 38.792 18.7761C38.2373 19.0534 37.5653 19.1921 36.776 19.1921Z" fill="white"/>
<path d="M44.2147 19.1921C43.5321 19.1921 42.9721 18.9788 42.5347 18.5521C42.1081 18.1254 41.8947 17.5708 41.8947 16.8881C41.8947 16.0454 42.2627 15.3948 42.9987 14.9361C43.7347 14.4668 44.9081 14.1468 46.5188 13.9761C46.5081 13.5601 46.3961 13.2028 46.1827 12.9041C45.9801 12.5948 45.6121 12.4401 45.0787 12.4401C44.6947 12.4401 44.3161 12.5148 43.9427 12.6641C43.5801 12.8134 43.2227 12.9948 42.8707 13.2081L42.1987 11.9761C42.6361 11.6988 43.1267 11.4588 43.6707 11.2561C44.2254 11.0534 44.8121 10.9521 45.4307 10.9521C46.4121 10.9521 47.1427 11.2454 47.6228 11.8321C48.1134 12.4081 48.3588 13.2454 48.3588 14.3441V19.0001H46.8387L46.7107 18.1361H46.6467C46.2947 18.4348 45.9161 18.6854 45.5107 18.8881C45.1161 19.0908 44.6841 19.1921 44.2147 19.1921ZM44.8067 17.7521C45.1267 17.7521 45.4147 17.6774 45.6707 17.5281C45.9374 17.3681 46.2201 17.1548 46.5188 16.8881V15.1281C45.4521 15.2668 44.7108 15.4748 44.2948 15.7521C43.8787 16.0188 43.6707 16.3494 43.6707 16.7441C43.6707 17.0961 43.7774 17.3521 43.9907 17.5121C44.2041 17.6721 44.4761 17.7521 44.8067 17.7521Z" fill="white"/>
<path d="M52.3527 19.0001L49.6167 11.1441H51.4887L52.7367 15.2241C52.8434 15.6081 52.9501 15.9974 53.0567 16.3921C53.1741 16.7868 53.2861 17.1868 53.3927 17.5921H53.4567C53.5741 17.1868 53.6861 16.7868 53.7927 16.3921C53.9101 15.9974 54.0221 15.6081 54.1287 15.2241L55.3767 11.1441H57.1528L54.4807 19.0001H52.3527Z" fill="white"/>
<path d="M61.8129 19.1921C61.0875 19.1921 60.4315 19.0321 59.8449 18.7121C59.2582 18.3814 58.7942 17.9121 58.4529 17.3041C58.1115 16.6854 57.9409 15.9441 57.9409 15.0801C57.9409 14.2268 58.1115 13.4908 58.4529 12.8721C58.8049 12.2534 59.2582 11.7788 59.8129 11.4481C60.3675 11.1174 60.9489 10.9521 61.5569 10.9521C62.2715 10.9521 62.8689 11.1121 63.3489 11.4321C63.8289 11.7414 64.1915 12.1788 64.4369 12.7441C64.6822 13.2988 64.8049 13.9441 64.8049 14.6801C64.8049 15.0641 64.7782 15.3628 64.7249 15.5761H59.7329C59.8182 16.2694 60.0689 16.8081 60.4849 17.1921C60.9009 17.5761 61.4235 17.7681 62.0529 17.7681C62.3942 17.7681 62.7089 17.7201 62.9969 17.6241C63.2955 17.5174 63.5889 17.3734 63.8769 17.1921L64.5009 18.3441C64.1275 18.5894 63.7115 18.7921 63.2529 18.9521C62.7942 19.1121 62.3142 19.1921 61.8129 19.1921ZM59.7169 14.3281H63.2049C63.2049 13.7201 63.0715 13.2454 62.8049 12.9041C62.5382 12.5521 62.1382 12.3761 61.6049 12.3761C61.1462 12.3761 60.7355 12.5468 60.3729 12.8881C60.0209 13.2188 59.8022 13.6988 59.7169 14.3281Z" fill="white"/>
<path d="M72.5974 19.1921C71.6907 19.1921 71.0454 18.9308 70.6614 18.4081C70.288 17.8748 70.1014 17.1868 70.1014 16.3441V12.6001H68.9814V11.2241L70.1974 11.1441L70.4214 9.0001H71.9574V11.1441H73.9574V12.6001H71.9574V16.3441C71.9574 17.2614 72.3254 17.7201 73.0614 17.7201C73.2 17.7201 73.344 17.7041 73.4934 17.6721C73.6427 17.6294 73.7707 17.5868 73.8774 17.5441L74.1974 18.9041C73.984 18.9788 73.7387 19.0428 73.4614 19.0961C73.1947 19.1601 72.9067 19.1921 72.5974 19.1921Z" fill="white"/>
<path d="M78.6086 19.1921C77.958 19.1921 77.35 19.0321 76.7846 18.7121C76.2193 18.3814 75.7606 17.9121 75.4086 17.3041C75.0566 16.6854 74.8806 15.9441 74.8806 15.0801C74.8806 14.2054 75.0566 13.4641 75.4086 12.8561C75.7606 12.2374 76.2193 11.7681 76.7846 11.4481C77.35 11.1174 77.958 10.9521 78.6086 10.9521C79.27 10.9521 79.8833 11.1174 80.4486 11.4481C81.014 11.7681 81.4726 12.2374 81.8246 12.8561C82.1766 13.4641 82.3526 14.2054 82.3526 15.0801C82.3526 15.9441 82.1766 16.6854 81.8246 17.3041C81.4726 17.9121 81.014 18.3814 80.4486 18.7121C79.8833 19.0321 79.27 19.1921 78.6086 19.1921ZM78.6086 17.6881C79.1846 17.6881 79.638 17.4481 79.9686 16.9681C80.2993 16.4881 80.4646 15.8588 80.4646 15.0801C80.4646 14.2908 80.2993 13.6561 79.9686 13.1761C79.638 12.6961 79.1846 12.4561 78.6086 12.4561C78.0326 12.4561 77.5793 12.6961 77.2486 13.1761C76.9286 13.6561 76.7686 14.2908 76.7686 15.0801C76.7686 15.8588 76.9286 16.4881 77.2486 16.9681C77.5793 17.4481 78.0326 17.6881 78.6086 17.6881Z" fill="white"/>
<path d="M89.745 13.4321L89.377 14.7121H92.049L91.681 13.4321C91.5103 12.8774 91.345 12.3068 91.185 11.7201C91.0357 11.1334 90.8863 10.5521 90.737 9.9761H90.673C90.5343 10.5628 90.385 11.1494 90.225 11.7361C90.0757 12.3121 89.9157 12.8774 89.745 13.4321ZM86.241 19.0001L89.649 8.5361H91.825L95.233 19.0001H93.281L92.465 16.1681H88.945L88.129 19.0001H86.241Z" fill="white"/>
<path d="M96.3949 22.1041V11.1441H97.9149L98.0429 11.9761H98.1069C98.4375 11.6988 98.8055 11.4588 99.2109 11.2561C99.6269 11.0534 100.048 10.9521 100.475 10.9521C101.456 10.9521 102.214 11.3148 102.747 12.0401C103.291 12.7654 103.563 13.7361 103.563 14.9521C103.563 15.8481 103.403 16.6161 103.083 17.2561C102.763 17.8854 102.347 18.3654 101.835 18.6961C101.334 19.0268 100.79 19.1921 100.203 19.1921C99.8615 19.1921 99.5202 19.1174 99.1789 18.9681C98.8375 18.8081 98.5069 18.5948 98.1869 18.3281L98.2349 19.6401V22.1041H96.3949ZM99.8189 17.6721C100.342 17.6721 100.779 17.4428 101.131 16.9841C101.483 16.5254 101.659 15.8534 101.659 14.9681C101.659 14.1788 101.526 13.5654 101.259 13.1281C100.992 12.6908 100.56 12.4721 99.9629 12.4721C99.4082 12.4721 98.8322 12.7654 98.2349 13.3521V17.0161C98.5229 17.2508 98.8002 17.4214 99.0669 17.5281C99.3335 17.6241 99.5842 17.6721 99.8189 17.6721Z" fill="white"/>
<path d="M105.458 22.1041V11.1441H106.978L107.106 11.9761H107.17C107.501 11.6988 107.869 11.4588 108.274 11.2561C108.69 11.0534 109.111 10.9521 109.538 10.9521C110.519 10.9521 111.277 11.3148 111.81 12.0401C112.354 12.7654 112.626 13.7361 112.626 14.9521C112.626 15.8481 112.466 16.6161 112.146 17.2561C111.826 17.8854 111.41 18.3654 110.898 18.6961C110.397 19.0268 109.853 19.1921 109.266 19.1921C108.925 19.1921 108.583 19.1174 108.242 18.9681C107.901 18.8081 107.57 18.5948 107.25 18.3281L107.298 19.6401V22.1041H105.458ZM108.882 17.6721C109.405 17.6721 109.842 17.4428 110.194 16.9841C110.546 16.5254 110.722 15.8534 110.722 14.9681C110.722 14.1788 110.589 13.5654 110.322 13.1281C110.055 12.6908 109.623 12.4721 109.026 12.4721C108.471 12.4721 107.895 12.7654 107.298 13.3521V17.0161C107.586 17.2508 107.863 17.4214 108.13 17.5281C108.397 17.6241 108.647 17.6721 108.882 17.6721Z" fill="white"/>
<path d="M116.313 19.1921C115.663 19.1921 115.199 18.9948 114.921 18.6001C114.655 18.2054 114.521 17.6668 114.521 16.9841V7.7041H116.361V17.0801C116.361 17.3041 116.404 17.4641 116.489 17.5601C116.575 17.6454 116.665 17.6881 116.761 17.6881C116.804 17.6881 116.841 17.6881 116.873 17.6881C116.916 17.6774 116.975 17.6668 117.049 17.6561L117.289 19.0321C117.183 19.0748 117.044 19.1121 116.873 19.1441C116.713 19.1761 116.527 19.1921 116.313 19.1921Z" fill="white"/>
<path d="M122.257 19.1921C121.532 19.1921 120.876 19.0321 120.289 18.7121C119.702 18.3814 119.238 17.9121 118.897 17.3041C118.556 16.6854 118.385 15.9441 118.385 15.0801C118.385 14.2268 118.556 13.4908 118.897 12.8721C119.249 12.2534 119.702 11.7788 120.257 11.4481C120.812 11.1174 121.393 10.9521 122.001 10.9521C122.716 10.9521 123.313 11.1121 123.793 11.4321C124.273 11.7414 124.636 12.1788 124.881 12.7441C125.126 13.2988 125.249 13.9441 125.249 14.6801C125.249 15.0641 125.222 15.3628 125.169 15.5761H120.177C120.262 16.2694 120.513 16.8081 120.929 17.1921C121.345 17.5761 121.868 17.7681 122.497 17.7681C122.838 17.7681 123.153 17.7201 123.441 17.6241C123.74 17.5174 124.033 17.3734 124.321 17.1921L124.945 18.3441C124.572 18.5894 124.156 18.7921 123.697 18.9521C123.238 19.1121 122.758 19.1921 122.257 19.1921ZM120.161 14.3281H123.649C123.649 13.7201 123.516 13.2454 123.249 12.9041C122.982 12.5521 122.582 12.3761 122.049 12.3761C121.59 12.3761 121.18 12.5468 120.817 12.8881C120.465 13.2188 120.246 13.6988 120.161 14.3281Z" fill="white"/>
<path d="M134.61 19.1921C133.735 19.1921 132.94 18.9841 132.226 18.5681C131.511 18.1521 130.94 17.5441 130.514 16.7441C130.098 15.9334 129.89 14.9521 129.89 13.8001C129.89 12.6588 130.103 11.6828 130.53 10.8721C130.967 10.0508 131.548 9.42677 132.274 9.0001C132.999 8.56277 133.799 8.3441 134.674 8.3441C135.335 8.3441 135.922 8.47744 136.434 8.7441C136.946 9.01077 137.367 9.3201 137.698 9.6721L136.706 10.8721C136.439 10.5948 136.14 10.3761 135.81 10.2161C135.49 10.0454 135.127 9.9601 134.722 9.9601C134.156 9.9601 133.65 10.1148 133.202 10.4241C132.764 10.7228 132.418 11.1548 132.162 11.7201C131.916 12.2854 131.794 12.9628 131.794 13.7521C131.794 14.9468 132.055 15.8854 132.578 16.5681C133.1 17.2401 133.799 17.5761 134.674 17.5761C135.143 17.5761 135.559 17.4801 135.922 17.2881C136.284 17.0854 136.615 16.8241 136.914 16.5041L137.906 17.6721C137.479 18.1628 136.988 18.5414 136.434 18.8081C135.89 19.0641 135.282 19.1921 134.61 19.1921Z" fill="white"/>
<path d="M141.428 19.1921C140.746 19.1921 140.186 18.9788 139.748 18.5521C139.322 18.1254 139.108 17.5708 139.108 16.8881C139.108 16.0454 139.476 15.3948 140.212 14.9361C140.948 14.4668 142.122 14.1468 143.732 13.9761C143.722 13.5601 143.61 13.2028 143.396 12.9041C143.194 12.5948 142.826 12.4401 142.292 12.4401C141.908 12.4401 141.53 12.5148 141.156 12.6641C140.794 12.8134 140.436 12.9948 140.084 13.2081L139.412 11.9761C139.85 11.6988 140.34 11.4588 140.884 11.2561C141.439 11.0534 142.026 10.9521 142.644 10.9521C143.626 10.9521 144.356 11.2454 144.836 11.8321C145.327 12.4081 145.572 13.2454 145.572 14.3441V19.0001H144.052L143.924 18.1361H143.86C143.508 18.4348 143.13 18.6854 142.724 18.8881C142.33 19.0908 141.898 19.1921 141.428 19.1921ZM142.02 17.7521C142.34 17.7521 142.628 17.6774 142.884 17.5281C143.151 17.3681 143.434 17.1548 143.732 16.8881V15.1281C142.666 15.2668 141.924 15.4748 141.508 15.7521C141.092 16.0188 140.884 16.3494 140.884 16.7441C140.884 17.0961 140.991 17.3521 141.204 17.5121C141.418 17.6721 141.69 17.7521 142.02 17.7521Z" fill="white"/>
<path d="M149.598 19.1921C148.948 19.1921 148.484 18.9948 148.206 18.6001C147.94 18.2054 147.806 17.6668 147.806 16.9841V7.7041H149.646V17.0801C149.646 17.3041 149.689 17.4641 149.774 17.5601C149.86 17.6454 149.95 17.6881 150.046 17.6881C150.089 17.6881 150.126 17.6881 150.158 17.6881C150.201 17.6774 150.26 17.6668 150.334 17.6561L150.574 19.0321C150.468 19.0748 150.329 19.1121 150.158 19.1441C149.998 19.1761 149.812 19.1921 149.598 19.1921Z" fill="white"/>
<path d="M155.542 19.1921C154.817 19.1921 154.161 19.0321 153.574 18.7121C152.987 18.3814 152.523 17.9121 152.182 17.3041C151.841 16.6854 151.67 15.9441 151.67 15.0801C151.67 14.2268 151.841 13.4908 152.182 12.8721C152.534 12.2534 152.987 11.7788 153.542 11.4481C154.097 11.1174 154.678 10.9521 155.286 10.9521C156.001 10.9521 156.598 11.1121 157.078 11.4321C157.558 11.7414 157.921 12.1788 158.166 12.7441C158.411 13.2988 158.534 13.9441 158.534 14.6801C158.534 15.0641 158.507 15.3628 158.454 15.5761H153.462C153.547 16.2694 153.798 16.8081 154.214 17.1921C154.63 17.5761 155.153 17.7681 155.782 17.7681C156.123 17.7681 156.438 17.7201 156.726 17.6241C157.025 17.5174 157.318 17.3734 157.606 17.1921L158.23 18.3441C157.857 18.5894 157.441 18.7921 156.982 18.9521C156.523 19.1121 156.043 19.1921 155.542 19.1921ZM153.446 14.3281H156.934C156.934 13.7201 156.801 13.2454 156.534 12.9041C156.267 12.5521 155.867 12.3761 155.334 12.3761C154.875 12.3761 154.465 12.5468 154.102 12.8881C153.75 13.2188 153.531 13.6988 153.446 14.3281Z" fill="white"/>
<path d="M160.323 19.0001V11.1441H161.843L161.971 12.2001H162.035C162.387 11.8588 162.771 11.5654 163.188 11.3201C163.604 11.0748 164.078 10.9521 164.611 10.9521C165.454 10.9521 166.067 11.2241 166.451 11.7681C166.835 12.3121 167.027 13.0801 167.027 14.0721V19.0001H165.188V14.3121C165.188 13.6614 165.091 13.2028 164.899 12.9361C164.707 12.6694 164.393 12.5361 163.955 12.5361C163.614 12.5361 163.31 12.6214 163.044 12.7921C162.788 12.9521 162.494 13.1921 162.163 13.5121V19.0001H160.323Z" fill="white"/>
<path d="M172.061 19.1921C171.079 19.1921 170.295 18.8294 169.709 18.1041C169.122 17.3788 168.829 16.3708 168.829 15.0801C168.829 14.2268 168.983 13.4908 169.293 12.8721C169.613 12.2534 170.029 11.7788 170.541 11.4481C171.053 11.1174 171.591 10.9521 172.157 10.9521C172.605 10.9521 172.983 11.0321 173.293 11.1921C173.613 11.3414 173.922 11.5494 174.221 11.8161L174.157 10.5521V7.7041H175.997V19.0001H174.477L174.349 18.1521H174.285C173.997 18.4401 173.661 18.6854 173.277 18.8881C172.893 19.0908 172.487 19.1921 172.061 19.1921ZM172.509 17.6721C173.095 17.6721 173.645 17.3788 174.157 16.7921V13.1281C173.89 12.8828 173.623 12.7121 173.357 12.6161C173.09 12.5201 172.823 12.4721 172.557 12.4721C172.055 12.4721 171.623 12.7014 171.261 13.1601C170.909 13.6081 170.733 14.2428 170.733 15.0641C170.733 15.9068 170.887 16.5521 171.197 17.0001C171.506 17.4481 171.943 17.6721 172.509 17.6721Z" fill="white"/>
<path d="M180.276 19.1921C179.593 19.1921 179.033 18.9788 178.596 18.5521C178.169 18.1254 177.956 17.5708 177.956 16.8881C177.956 16.0454 178.324 15.3948 179.06 14.9361C179.796 14.4668 180.969 14.1468 182.58 13.9761C182.569 13.5601 182.457 13.2028 182.244 12.9041C182.041 12.5948 181.673 12.4401 181.14 12.4401C180.756 12.4401 180.377 12.5148 180.004 12.6641C179.641 12.8134 179.284 12.9948 178.932 13.2081L178.26 11.9761C178.697 11.6988 179.188 11.4588 179.732 11.2561C180.287 11.0534 180.873 10.9521 181.492 10.9521C182.473 10.9521 183.204 11.2454 183.684 11.8321C184.175 12.4081 184.42 13.2454 184.42 14.3441V19.0001H182.9L182.772 18.1361H182.708C182.356 18.4348 181.977 18.6854 181.572 18.8881C181.177 19.0908 180.745 19.1921 180.276 19.1921ZM180.868 17.7521C181.188 17.7521 181.476 17.6774 181.732 17.5281C181.999 17.3681 182.281 17.1548 182.58 16.8881V15.1281C181.513 15.2668 180.772 15.4748 180.356 15.7521C179.94 16.0188 179.732 16.3494 179.732 16.7441C179.732 17.0961 179.839 17.3521 180.052 17.5121C180.265 17.6721 180.537 17.7521 180.868 17.7521Z" fill="white"/>
<path d="M186.654 19.0001V11.1441H188.174L188.302 12.5361H188.366C188.643 12.0241 188.979 11.6348 189.374 11.3681C189.769 11.0908 190.174 10.9521 190.59 10.9521C190.963 10.9521 191.262 11.0054 191.486 11.1121L191.166 12.7121C191.027 12.6694 190.899 12.6374 190.782 12.6161C190.665 12.5948 190.521 12.5841 190.35 12.5841C190.041 12.5841 189.715 12.7068 189.374 12.9521C189.033 13.1868 188.739 13.6028 188.494 14.2001V19.0001H186.654Z" fill="white"/>
<path fill-rule="evenodd" clip-rule="evenodd" d="M17.5597 0.00805768C16.1618 0.179054 14.7526 0.830717 13.726 1.78088C13.2097 2.25874 12.8442 2.7312 12.4988 3.36739C12.1614 3.9888 11.9777 4.55309 11.9083 5.18147C11.8701 5.52764 11.8932 5.92245 11.9562 5.99924C12.0142 6.06985 12.643 6.06199 13.0521 5.98557C14.0465 5.79981 15.0894 5.29415 15.8749 4.61689C16.9675 3.6748 17.7001 2.36553 17.868 1.05485C17.9018 0.791666 17.9051 0.303668 17.8745 0.12195C17.8554 0.00855698 17.8503 0.003564 17.7514 0.000463096C17.6946 -0.00129759 17.6083 0.00211866 17.5597 0.00805768ZM16.6013 6.39092C15.9305 6.47481 15.2279 6.65976 14.1389 7.03917C12.6513 7.55747 12.3218 7.61783 11.6765 7.49041C11.3837 7.43257 11.0738 7.33683 10.3629 7.08455C9.02914 6.61125 8.4445 6.46853 7.62162 6.41542C7.32433 6.39623 6.66597 6.43581 6.2678 6.4968C4.35386 6.78997 2.65984 7.7913 1.53675 9.29329C0.170787 11.1201 -0.292439 13.5042 0.17866 16.2834C0.503019 18.197 1.28818 20.2318 2.33386 21.8685C3.13139 23.1169 4.54498 24.76 5.35689 25.3824C6.37488 26.1628 7.2972 26.403 8.45981 26.1907C8.84674 26.12 9.10897 26.0405 9.8481 25.7699C10.1968 25.6422 10.6252 25.496 10.8001 25.4451C11.7433 25.1703 12.732 25.1211 13.7218 25.2994C14.113 25.3699 14.5064 25.4902 15.1575 25.7384C16.0366 26.0735 16.4069 26.1682 17.0264 26.2167C18.1384 26.3035 19.0933 25.9631 20.0773 25.1291C20.3459 24.9014 20.8691 24.3571 21.2167 23.9437C22.3699 22.5722 23.0942 21.4479 23.6632 20.1464C23.8287 19.7681 24.0161 19.2791 23.9989 19.271C23.9931 19.2683 23.8431 19.201 23.6654 19.1215C22.4404 18.5735 21.3796 17.6595 20.7632 16.6209C20.3219 15.8774 20.0978 15.0947 20.061 14.168C20.003 12.7095 20.5059 11.3909 21.5466 10.2727C21.9472 9.84231 22.5222 9.37943 23.0529 9.06015L23.2379 8.94883L23.1413 8.82871C22.0975 7.52988 20.4842 6.67637 18.5771 6.414C18.1363 6.35335 17.0073 6.34018 16.6013 6.39092Z" fill="white"/>
</svg>
